<?xml version="1.0" encoding="UTF-8"?>
<svg id="_レイヤー_2" data-name="レイヤー 2" xmlns="http://www.w3.org/2000/svg" xmlns:xlink="http://www.w3.org/1999/xlink" viewBox="0 0 425.06 488.6">
  <defs>
    <style>
      .cls-1 {
        fill: url(#_名称未設定グラデーション_5);
      }
    </style>
    <linearGradient id="_名称未設定グラデーション_5" data-name="名称未設定グラデーション 5" x1="1566.4" y1="-3078.2" x2="1429.37" y2="4035.67" gradientTransform="translate(108.66 208.71) scale(.07)" gradientUnits="userSpaceOnUse">
      <stop offset="0" stop-color="#12491d"/>
      <stop offset=".2" stop-color="#12491d"/>
      <stop offset=".79" stop-color="#3ea228"/>
      <stop offset="1" stop-color="#40a629"/>
    </linearGradient>
  </defs>
  <g id="_レイヤー_1-2" data-name="レイヤー 1">
    <path class="cls-1" d="M35.78.27l353.09-.27c17.91,2.23,34.59,17.68,36.18,36.08v203c-5.09,86.86-82.37,197.79-160.02,235.92-39.82,19.56-68.81,17.65-107.3-3.32C84.66,431.86,6.83,324.23,1.37,240.02c-4.3-66.34,3.23-137.13-.05-203.94C3.35,18.03,17.77,2.92,35.78.27ZM35.32,32.96c-1.43,1.54-2.32,4.92-2.34,7.07,3.09,63.96-3.95,131.51.06,195.04,4.63,73.42,70.3,165.7,131.73,203.84,40.9,25.39,66.39,22.16,105.74-3.96,61.09-40.56,118.76-126.34,122.87-200.81,3.49-63.2-2.73-129.57,0-193.1.05-6.67-4.69-11.43-11.38-11.38-113.93.53-228.04-.87-341.86.71-1.42.76-3.76,1.47-4.82,2.61Z"/>
  </g>
</svg>